<?xml version="1.0" encoding="UTF-8"?>
<svg xmlns="http://www.w3.org/2000/svg" xmlns:xlink="http://www.w3.org/1999/xlink" width="193pt" height="193pt" viewBox="0 0 193 193" version="1.1" enable-background="">
<g id="surface1">
<path style=" stroke:none;fill-rule:evenodd;fill:rgb(100%,100%,100%);fill-opacity:1;" d="M 0 0.242188 L 192.757813 0.242188 L 192.757813 193 L 0 193 L 0 0.242188 "/>
<path style=" stroke:none;fill-rule:nonzero;fill:rgb(100%,94.898987%,0%);fill-opacity:1;" d="M 107.117188 180.046875 C 101.183594 185.980469 91.570313 185.980469 85.640625 180.046875 L 12.953125 107.359375 C 7.023438 101.429688 7.023438 91.8125 12.953125 85.882813 L 85.640625 13.195313 C 91.570313 7.265625 101.183594 7.265625 107.117188 13.195313 L 179.800781 85.882813 C 185.734375 91.8125 185.734375 101.429688 179.800781 107.359375 L 107.117188 180.046875 "/>
<path style=" stroke:none;fill-rule:nonzero;fill:rgb(13.699341%,12.199402%,12.5%);fill-opacity:1;" d="M 69.90625 55.09375 L 83.371094 74.394531 L 81.488281 85.34375 L 86.957031 120.363281 L 89.4375 88.28125 L 92.71875 120.363281 L 97.390625 91.566406 L 107.671875 93.957031 L 110.648438 120.472656 L 114.128906 96.289063 L 120.203125 120.433594 L 120.453125 93.574219 L 129.109375 95.492188 L 74.734375 47.933594 L 76.273438 44.632813 L 72.84375 45.414063 L 69.90625 41.265625 L 69.214844 45.414063 L 65.757813 42.476563 L 66.101563 46.625 L 60.917969 57.34375 L 69.90625 55.09375 "/>
<path style=" stroke:none;fill-rule:nonzero;fill:rgb(100%,94.898987%,0%);fill-opacity:1;" d="M 102.566406 74.386719 C 102.828125 74.609375 102.855469 75.003906 102.632813 75.265625 L 101.285156 76.824219 C 101.0625 77.082031 100.667969 77.113281 100.410156 76.886719 L 99.527344 76.125 C 99.269531 75.902344 99.238281 75.511719 99.464844 75.25 L 100.808594 73.6875 C 101.035156 73.429688 101.425781 73.398438 101.6875 73.625 L 102.566406 74.386719 "/>
<path style=" stroke:none;fill-rule:nonzero;fill:rgb(100%,94.898987%,0%);fill-opacity:1;" d="M 106.265625 77.578125 C 106.527344 77.804688 106.554688 78.195313 106.328125 78.457031 L 104.984375 80.015625 C 104.761719 80.277344 104.363281 80.304688 104.105469 80.078125 L 103.226563 79.320313 C 102.964844 79.09375 102.933594 78.699219 103.160156 78.441406 L 104.507813 76.882813 C 104.730469 76.621094 105.125 76.59375 105.386719 76.816406 L 106.265625 77.578125 "/>
<path style=" stroke:none;fill-rule:nonzero;fill:rgb(100%,94.898987%,0%);fill-opacity:1;" d="M 109.964844 80.769531 C 110.222656 80.996094 110.253906 81.386719 110.027344 81.648438 L 108.679688 83.207031 C 108.457031 83.46875 108.0625 83.496094 107.804688 83.273438 L 106.921875 82.511719 C 106.660156 82.285156 106.632813 81.894531 106.855469 81.632813 L 108.203125 80.074219 C 108.429688 79.8125 108.824219 79.785156 109.082031 80.011719 L 109.964844 80.769531 "/>
<path style=" stroke:none;fill-rule:nonzero;fill:rgb(100%,94.898987%,0%);fill-opacity:1;" d="M 113.660156 83.964844 C 113.921875 84.1875 113.949219 84.582031 113.722656 84.84375 L 112.378906 86.398438 C 112.152344 86.660156 111.757813 86.691406 111.5 86.464844 L 110.617188 85.703125 C 110.359375 85.480469 110.328125 85.085938 110.554688 84.824219 L 111.898438 83.269531 C 112.125 83.007813 112.519531 82.980469 112.78125 83.203125 L 113.660156 83.964844 "/>
<path style=" stroke:none;fill-rule:nonzero;fill:rgb(100%,94.898987%,0%);fill-opacity:1;" d="M 117.355469 87.15625 C 117.617188 87.382813 117.644531 87.773438 117.421875 88.035156 L 116.074219 89.59375 C 115.851563 89.855469 115.457031 89.882813 115.195313 89.65625 L 114.316406 88.898438 C 114.054688 88.671875 114.027344 88.28125 114.25 88.019531 L 115.597656 86.460938 C 115.820313 86.199219 116.214844 86.171875 116.476563 86.394531 L 117.355469 87.15625 "/>
<path style=" stroke:none;fill-rule:nonzero;fill:rgb(100%,94.898987%,0%);fill-opacity:1;" d="M 98.886719 71.203125 C 99.148438 71.429688 99.175781 71.824219 98.953125 72.085938 L 97.605469 73.644531 C 97.378906 73.902344 96.984375 73.933594 96.726563 73.707031 L 95.847656 72.945313 C 95.585938 72.722656 95.554688 72.328125 95.78125 72.070313 L 97.128906 70.507813 C 97.351563 70.25 97.746094 70.222656 98.003906 70.445313 L 98.886719 71.203125 "/>
<path style=" stroke:none;fill-rule:nonzero;fill:rgb(100%,94.898987%,0%);fill-opacity:1;" d="M 84.230469 58.519531 C 84.492188 58.742188 84.523438 59.136719 84.296875 59.398438 L 82.949219 60.957031 C 82.726563 61.21875 82.332031 61.246094 82.070313 61.019531 L 81.191406 60.261719 C 80.929688 60.035156 80.902344 59.640625 81.125 59.382813 L 82.472656 57.820313 C 82.699219 57.5625 83.09375 57.535156 83.351563 57.757813 L 84.230469 58.519531 "/>
<path style=" stroke:none;fill-rule:nonzero;fill:rgb(100%,94.898987%,0%);fill-opacity:1;" d="M 87.929688 61.710938 C 88.191406 61.9375 88.21875 62.328125 87.996094 62.589844 L 86.648438 64.148438 C 86.421875 64.410156 86.03125 64.4375 85.769531 64.210938 L 84.886719 63.453125 C 84.628906 63.226563 84.597656 62.835938 84.824219 62.574219 L 86.171875 61.015625 C 86.394531 60.753906 86.789063 60.726563 87.046875 60.949219 L 87.929688 61.710938 "/>
<path style=" stroke:none;fill-rule:nonzero;fill:rgb(100%,94.898987%,0%);fill-opacity:1;" d="M 91.625 64.902344 C 91.886719 65.128906 91.914063 65.519531 91.691406 65.78125 L 90.34375 67.339844 C 90.117188 67.601563 89.726563 67.632813 89.464844 67.40625 L 88.585938 66.644531 C 88.324219 66.421875 88.296875 66.027344 88.519531 65.765625 L 89.867188 64.207031 C 90.089844 63.949219 90.484375 63.917969 90.746094 64.144531 L 91.625 64.902344 "/>
<path style=" stroke:none;fill-rule:nonzero;fill:rgb(100%,94.898987%,0%);fill-opacity:1;" d="M 95.324219 68.097656 C 95.582031 68.320313 95.613281 68.714844 95.386719 68.976563 L 94.042969 70.535156 C 93.816406 70.792969 93.421875 70.824219 93.164063 70.597656 L 92.28125 69.835938 C 92.023438 69.613281 91.992188 69.21875 92.21875 68.960938 L 93.566406 67.398438 C 93.789063 67.140625 94.183594 67.109375 94.441406 67.335938 L 95.324219 68.097656 "/>
<path style=" stroke:none;fill-rule:nonzero;fill:rgb(100%,94.898987%,0%);fill-opacity:1;" d="M 80.550781 55.339844 C 80.8125 55.5625 80.839844 55.957031 80.613281 56.21875 L 79.265625 57.777344 C 79.042969 58.035156 78.648438 58.066406 78.390625 57.839844 L 77.507813 57.078125 C 77.25 56.855469 77.21875 56.460938 77.445313 56.199219 L 78.789063 54.640625 C 79.015625 54.382813 79.410156 54.351563 79.667969 54.578125 L 80.550781 55.339844 "/>
<path style=" stroke:none;fill-rule:nonzero;fill:rgb(100%,100%,100%);fill-opacity:1;" d="M 69.773438 49.25 C 69.773438 49.875 69.265625 50.382813 68.636719 50.382813 C 68.011719 50.382813 67.503906 49.875 67.503906 49.25 C 67.503906 48.621094 68.011719 48.113281 68.636719 48.113281 C 69.265625 48.113281 69.773438 48.621094 69.773438 49.25 "/>
<path style=" stroke:none;fill-rule:nonzero;fill:rgb(13.699341%,12.199402%,12.5%);fill-opacity:1;" d="M 65.335938 135.796875 L 68.335938 120.125 L 73.6875 132.578125 L 79.0625 120.125 L 82.058594 135.796875 L 80.382813 135.800781 L 78.46875 125.800781 L 73.699219 136.351563 L 68.941406 125.71875 L 67.015625 135.796875 L 65.335938 135.796875 "/>
<path style=" stroke:none;fill-rule:nonzero;fill:rgb(13.699341%,12.199402%,12.5%);fill-opacity:1;" d="M 89.949219 120.640625 C 92.042969 120.640625 93.847656 121.390625 95.359375 122.882813 C 96.871094 124.382813 97.625 126.195313 97.625 128.324219 C 97.625 130.441406 96.871094 132.242188 95.371094 133.734375 C 93.867188 135.222656 92.058594 135.96875 89.949219 135.96875 C 87.832031 135.96875 86.023438 135.226563 84.523438 133.753906 C 83.019531 132.277344 82.269531 130.46875 82.269531 128.324219 C 82.269531 126.210938 83.019531 124.402344 84.523438 122.894531 C 86.023438 121.390625 87.832031 120.640625 89.949219 120.640625 "/>
<path style=" stroke:none;fill-rule:nonzero;fill:rgb(13.699341%,12.199402%,12.5%);fill-opacity:1;" d="M 98.804688 120.984375 L 103.019531 132.320313 L 107.246094 120.976563 L 109.019531 120.976563 L 103.035156 136.667969 L 97.035156 120.976563 L 98.804688 120.984375 "/>
<path style=" stroke:none;fill-rule:nonzero;fill:rgb(13.699341%,12.199402%,12.5%);fill-opacity:1;" d="M 112.046875 120.976563 L 112.046875 135.789063 L 110.394531 135.789063 L 110.394531 120.976563 L 112.046875 120.976563 "/>
<path style=" stroke:none;fill-rule:nonzero;fill:rgb(13.699341%,12.199402%,12.5%);fill-opacity:1;" d="M 114.0625 135.789063 L 114.0625 120.976563 L 121.714844 120.976563 L 121.714844 122.511719 L 115.710938 122.511719 L 115.710938 126.890625 L 121.539063 126.890625 L 121.539063 128.425781 L 115.710938 128.425781 L 115.710938 134.253906 L 121.714844 134.253906 L 121.714844 135.789063 L 114.0625 135.789063 "/>
<path style=" stroke:none;fill-rule:nonzero;fill:rgb(13.699341%,12.199402%,12.5%);fill-opacity:1;" d="M 92.554688 145.621094 L 92.554688 152.101563 L 90.90625 152.101563 L 90.90625 137.289063 L 93.328125 137.289063 C 94.222656 137.289063 94.929688 137.328125 95.457031 137.40625 C 95.984375 137.484375 96.507813 137.714844 97.027344 138.089844 C 97.546875 138.464844 97.949219 138.945313 98.238281 139.539063 C 98.527344 140.128906 98.667969 140.765625 98.667969 141.445313 C 98.667969 142.078125 98.550781 142.679688 98.3125 143.25 C 98.074219 143.820313 97.726563 144.285156 97.265625 144.648438 C 96.820313 145.035156 96.304688 145.296875 95.71875 145.425781 C 95.136719 145.554688 94.476563 145.621094 93.742188 145.621094 Z M 92.554688 138.824219 L 92.554688 144.082031 L 93.65625 144.082031 C 94.691406 144.082031 95.480469 143.902344 96.027344 143.546875 C 96.6875 143.113281 97.019531 142.402344 97.019531 141.410156 C 97.019531 140.332031 96.617188 139.601563 95.8125 139.210938 C 95.265625 138.953125 94.382813 138.824219 93.160156 138.824219 L 92.554688 138.824219 "/>
<path style=" stroke:none;fill-rule:nonzero;fill:rgb(13.699341%,12.199402%,12.5%);fill-opacity:1;" d="M 106.085938 147.902344 L 99.792969 147.902344 L 98.007813 152.105469 L 96.203125 152.109375 L 103.023438 136.605469 L 109.648438 152.109375 L 107.851563 152.101563 Z M 105.464844 146.367188 L 102.988281 140.429688 L 100.46875 146.367188 Z M 105.464844 146.367188 "/>
<path style=" stroke:none;fill-rule:nonzero;fill:rgb(13.699341%,12.199402%,12.5%);fill-opacity:1;" d="M 112.019531 145.589844 L 112.019531 152.101563 L 110.371094 152.101563 L 110.371094 137.289063 L 112.507813 137.289063 C 114.132813 137.289063 115.378906 137.550781 116.242188 138.066406 C 117.351563 138.730469 117.90625 139.832031 117.90625 141.371094 C 117.90625 142.523438 117.574219 143.46875 116.910156 144.203125 C 116.246094 144.9375 115.347656 145.355469 114.207031 145.453125 L 118.894531 152.101563 L 116.859375 152.121094 L 112.429688 145.597656 Z M 112.019531 138.824219 L 112.019531 144.167969 L 112.535156 144.167969 C 113.683594 144.167969 114.535156 144.015625 115.09375 143.714844 C 115.867188 143.296875 116.253906 142.554688 116.253906 141.488281 C 116.253906 140.390625 115.882813 139.644531 115.136719 139.257813 C 114.589844 138.96875 113.71875 138.824219 112.511719 138.824219 L 112.019531 138.824219 "/>
<path style=" stroke:none;fill-rule:nonzero;fill:rgb(13.699341%,12.199402%,12.5%);fill-opacity:1;" d="M 121.691406 143.621094 L 127.957031 137.289063 L 130.15625 137.292969 L 123.253906 144.1875 L 130.402344 152.109375 L 128.140625 152.105469 L 122.117188 145.304688 L 121.691406 145.71875 L 121.691406 152.109375 L 120.039063 152.109375 L 120.039063 137.292969 L 121.691406 137.292969 L 121.691406 143.621094 "/>
<path style=" stroke:none;fill-rule:nonzero;fill:rgb(100%,100%,100%);fill-opacity:1;" d="M 87.53125 128.300781 C 87.53125 129.636719 88.617188 130.71875 89.949219 130.71875 C 91.277344 130.71875 92.359375 129.636719 92.359375 128.300781 C 92.359375 126.972656 91.277344 125.890625 89.949219 125.890625 C 88.617188 125.890625 87.53125 126.972656 87.53125 128.300781 Z M 88.898438 128.300781 C 88.898438 127.726563 89.367188 127.253906 89.949219 127.253906 C 90.527344 127.253906 90.996094 127.726563 90.996094 128.300781 C 90.996094 128.882813 90.527344 129.351563 89.949219 129.351563 C 89.367188 129.351563 88.898438 128.882813 88.898438 128.300781 "/>
</g>
</svg>
